<svg width="6" height="8" viewBox="0 0 6 8" fill="none" xmlns="http://www.w3.org/2000/svg">
<path d="M0.929578 7.7C0.737578 7.7 0.581578 7.628 0.461578 7.484C0.365578 7.34 0.329578 7.16 0.353578 6.944L1.18158 1.796C1.22958 1.508 1.32558 1.268 1.46958 1.076C1.63758 0.86 1.87758 0.752 2.18958 0.752H4.60158C4.76958 0.752 4.90158 0.812 4.99758 0.932C5.11758 1.052 5.17758 1.196 5.17758 1.364C5.17758 1.556 5.12958 1.748 5.03358 1.94L3.16158 6.872C3.06558 7.112 2.93358 7.304 2.76558 7.448C2.62158 7.616 2.40558 7.7 2.11758 7.7H0.929578Z" fill="#EBEBEB"/>
</svg>
