<svg width="14" height="19" viewBox="0 0 14 19" fill="none" xmlns="http://www.w3.org/2000/svg">
<path d="M6.99081 18.24C5.88681 18.24 4.95081 18.072 4.18281 17.736C3.43081 17.384 2.81481 16.904 2.33481 16.296C1.85481 15.688 1.50281 14.992 1.27881 14.208C1.07081 13.424 0.950813 12.592 0.918813 11.712C0.902813 11.28 0.886813 10.824 0.870813 10.344C0.870813 9.864 0.870813 9.384 0.870813 8.904C0.886813 8.408 0.902813 7.936 0.918813 7.488C0.934813 6.608 1.05481 5.776 1.27881 4.992C1.51881 4.192 1.87081 3.496 2.33481 2.904C2.81481 2.296 3.43881 1.824 4.20681 1.488C4.97481 1.136 5.90281 0.959999 6.99081 0.959999C8.09481 0.959999 9.02281 1.136 9.77481 1.488C10.5428 1.824 11.1668 2.296 11.6468 2.904C12.1268 3.496 12.4788 4.192 12.7028 4.992C12.9428 5.776 13.0708 6.608 13.0868 7.488C13.1028 7.936 13.1108 8.408 13.1108 8.904C13.1268 9.384 13.1268 9.864 13.1108 10.344C13.1108 10.824 13.1028 11.28 13.0868 11.712C13.0708 12.592 12.9428 13.424 12.7028 14.208C12.4788 14.992 12.1268 15.688 11.6468 16.296C11.1828 16.904 10.5668 17.384 9.79881 17.736C9.04681 18.072 8.11081 18.24 6.99081 18.24ZM6.99081 16.2C8.23881 16.2 9.15881 15.792 9.75081 14.976C10.3588 14.144 10.6708 13.016 10.6868 11.592C10.7188 11.128 10.7348 10.68 10.7348 10.248C10.7348 9.8 10.7348 9.36 10.7348 8.928C10.7348 8.48 10.7188 8.04 10.6868 7.608C10.6708 6.216 10.3588 5.104 9.75081 4.272C9.15881 3.424 8.23881 3 6.99081 3C5.75881 3 4.83881 3.424 4.23081 4.272C3.63881 5.104 3.32681 6.216 3.29481 7.608C3.29481 8.04 3.28681 8.48 3.27081 8.928C3.27081 9.36 3.27081 9.8 3.27081 10.248C3.28681 10.68 3.29481 11.128 3.29481 11.592C3.32681 13.016 3.64681 14.144 4.25481 14.976C4.86281 15.792 5.77481 16.2 6.99081 16.2Z" fill="#EBEBEB"/>
</svg>
