<svg width="9" height="17" viewBox="0 0 9 17" fill="none" xmlns="http://www.w3.org/2000/svg">
<path d="M6.49119 17C6.33119 17 6.19519 16.952 6.08319 16.856C5.98719 16.744 5.93919 16.608 5.93919 16.448V3.008L1.95519 6.08C1.82719 6.176 1.69119 6.216 1.54719 6.2C1.40319 6.184 1.28319 6.112 1.18719 5.984L0.563188 5.192C0.467188 5.048 0.427188 4.904 0.443188 4.76C0.475188 4.616 0.555188 4.496 0.683188 4.4L5.91519 0.368C6.02719 0.288 6.13119 0.239999 6.22719 0.223999C6.32319 0.207999 6.42719 0.199999 6.53919 0.199999H7.76319C7.92319 0.199999 8.05119 0.255999 8.14719 0.368C8.24319 0.463999 8.29119 0.591999 8.29119 0.751999V16.448C8.29119 16.608 8.24319 16.744 8.14719 16.856C8.05119 16.952 7.92319 17 7.76319 17H6.49119Z" fill="#EBEBEB"/>
</svg>
