<svg width="12" height="18" viewBox="0 0 12 18" fill="none" xmlns="http://www.w3.org/2000/svg">
<path d="M0.685031 18C0.525031 18 0.389031 17.952 0.277031 17.856C0.181031 17.744 0.133031 17.608 0.133031 17.448V16.68C0.133031 16.536 0.173031 16.376 0.253031 16.2C0.333031 16.024 0.493031 15.832 0.733031 15.624L5.82103 10.536C6.63703 9.848 7.27703 9.264 7.74103 8.784C8.22103 8.288 8.55703 7.816 8.74903 7.368C8.95703 6.92 9.06103 6.456 9.06103 5.976C9.06103 5.064 8.80503 4.344 8.29303 3.816C7.78103 3.272 7.02103 3 6.01303 3C5.37303 3 4.82103 3.136 4.35703 3.408C3.89303 3.664 3.52503 4.024 3.25303 4.488C2.99703 4.936 2.82903 5.448 2.74903 6.024C2.71703 6.232 2.62903 6.376 2.48503 6.456C2.35703 6.536 2.23703 6.576 2.12503 6.576H0.877031C0.733031 6.576 0.613031 6.536 0.517031 6.456C0.421031 6.36 0.373031 6.248 0.373031 6.12C0.389031 5.512 0.517031 4.904 0.757031 4.296C0.997031 3.672 1.34903 3.112 1.81303 2.616C2.29303 2.12 2.87703 1.72 3.56503 1.416C4.26903 1.096 5.08503 0.935999 6.01303 0.935999C7.27703 0.935999 8.30903 1.168 9.10903 1.632C9.92503 2.08 10.525 2.68 10.909 3.432C11.293 4.184 11.485 5.008 11.485 5.904C11.485 6.608 11.365 7.256 11.125 7.848C10.885 8.424 10.533 8.992 10.069 9.552C9.62103 10.096 9.06103 10.656 8.38903 11.232L3.78103 15.912H11.269C11.445 15.912 11.581 15.96 11.677 16.056C11.789 16.152 11.845 16.288 11.845 16.464V17.448C11.845 17.608 11.789 17.744 11.677 17.856C11.581 17.952 11.445 18 11.269 18H0.685031Z" fill="#EBEBEB"/>
</svg>
