<svg width="14" height="18" viewBox="0 0 14 18" fill="none" xmlns="http://www.w3.org/2000/svg">
<path d="M6.94497 17.24C5.93697 17.24 5.05697 17.12 4.30497 16.88C3.55297 16.624 2.92097 16.288 2.40897 15.872C1.89697 15.456 1.50497 15 1.23297 14.504C0.976969 14.008 0.840969 13.496 0.824969 12.968C0.824969 12.824 0.872969 12.712 0.968969 12.632C1.06497 12.552 1.18497 12.512 1.32897 12.512H2.50497C2.64897 12.512 2.77697 12.544 2.88897 12.608C3.00097 12.672 3.09697 12.808 3.17697 13.016C3.33697 13.592 3.60897 14.04 3.99297 14.36C4.39297 14.68 4.84897 14.904 5.36097 15.032C5.88897 15.144 6.41697 15.2 6.94497 15.2C8.04897 15.2 8.94497 14.936 9.63297 14.408C10.321 13.88 10.665 13.104 10.665 12.08C10.665 11.04 10.353 10.296 9.72897 9.848C9.10497 9.4 8.24097 9.176 7.13697 9.176H4.85697C4.69697 9.176 4.56097 9.128 4.44897 9.032C4.35297 8.936 4.30497 8.8 4.30497 8.624V7.976C4.30497 7.832 4.32897 7.712 4.37697 7.616C4.44097 7.504 4.50497 7.408 4.56897 7.328L9.22497 2.24H2.14497C1.98497 2.24 1.84897 2.192 1.73697 2.096C1.64097 2 1.59297 1.864 1.59297 1.688V0.775999C1.59297 0.599999 1.64097 0.463999 1.73697 0.368C1.84897 0.255999 1.98497 0.199999 2.14497 0.199999H11.721C11.897 0.199999 12.033 0.255999 12.129 0.368C12.241 0.463999 12.297 0.599999 12.297 0.775999V1.64C12.297 1.752 12.265 1.856 12.201 1.952C12.153 2.032 12.097 2.112 12.033 2.192L7.40097 7.352L7.78497 7.376C8.84097 7.408 9.76097 7.6 10.545 7.952C11.345 8.304 11.961 8.832 12.393 9.536C12.841 10.224 13.065 11.096 13.065 12.152C13.065 13.224 12.801 14.144 12.273 14.912C11.745 15.664 11.017 16.24 10.089 16.64C9.16097 17.04 8.11297 17.24 6.94497 17.24Z" fill="#EBEBEB"/>
</svg>
