<svg width="14" height="17" viewBox="0 0 14 17" fill="none" xmlns="http://www.w3.org/2000/svg">
<path d="M9.17088 17C9.01088 17 8.87488 16.952 8.76288 16.856C8.66688 16.744 8.61888 16.608 8.61888 16.448V12.992H0.842875C0.682875 12.992 0.546875 12.944 0.434875 12.848C0.338875 12.736 0.290875 12.6 0.290875 12.44V11.48C0.290875 11.416 0.306875 11.32 0.338875 11.192C0.386875 11.048 0.458875 10.904 0.554875 10.76L7.75488 0.607999C7.94688 0.335999 8.24288 0.199999 8.64288 0.199999H10.3709C10.5309 0.199999 10.6589 0.255999 10.7549 0.368C10.8669 0.463999 10.9229 0.591999 10.9229 0.751999V10.904H13.0829C13.2589 10.904 13.3949 10.96 13.4909 11.072C13.6029 11.168 13.6589 11.296 13.6589 11.456V12.44C13.6589 12.6 13.6029 12.736 13.4909 12.848C13.3949 12.944 13.2669 12.992 13.1069 12.992H10.9229V16.448C10.9229 16.608 10.8669 16.744 10.7549 16.856C10.6589 16.952 10.5309 17 10.3709 17H9.17088ZM2.85888 10.952H8.64288V2.72L2.85888 10.952Z" fill="#EBEBEB"/>
</svg>
