<svg width="14" height="18" viewBox="0 0 14 18" fill="none" xmlns="http://www.w3.org/2000/svg">
<path d="M6.883 17.24C5.619 17.24 4.547 17.024 3.667 16.592C2.803 16.144 2.139 15.568 1.675 14.864C1.227 14.16 0.987 13.416 0.955 12.632C0.939 12.488 0.979 12.376 1.075 12.296C1.171 12.216 1.291 12.176 1.435 12.176H2.731C2.875 12.176 3.003 12.208 3.115 12.272C3.227 12.336 3.315 12.472 3.379 12.68C3.539 13.272 3.795 13.76 4.147 14.144C4.515 14.512 4.931 14.784 5.395 14.96C5.875 15.12 6.371 15.2 6.883 15.2C7.571 15.2 8.195 15.064 8.755 14.792C9.331 14.504 9.787 14.088 10.123 13.544C10.459 12.984 10.627 12.312 10.627 11.528C10.627 10.808 10.459 10.192 10.123 9.68C9.803 9.152 9.355 8.752 8.779 8.48C8.219 8.192 7.587 8.048 6.883 8.048C6.355 8.048 5.923 8.112 5.587 8.24C5.251 8.368 4.963 8.52 4.723 8.696C4.499 8.872 4.291 9.024 4.099 9.152C3.923 9.28 3.723 9.344 3.499 9.344H2.251C2.107 9.344 1.979 9.296 1.867 9.2C1.755 9.088 1.707 8.96 1.723 8.816L2.491 0.8C2.507 0.607999 2.563 0.463999 2.659 0.368C2.771 0.255999 2.915 0.199999 3.091 0.199999H11.467C11.627 0.199999 11.755 0.255999 11.851 0.368C11.963 0.463999 12.019 0.591999 12.019 0.751999V1.688C12.019 1.864 11.963 2 11.851 2.096C11.755 2.192 11.627 2.24 11.467 2.24H4.555L4.099 6.968C4.323 6.824 4.683 6.656 5.179 6.464C5.675 6.256 6.355 6.152 7.219 6.152C8.003 6.152 8.739 6.272 9.427 6.512C10.131 6.752 10.755 7.104 11.299 7.568C11.843 8.032 12.267 8.6 12.571 9.272C12.875 9.928 13.027 10.688 13.027 11.552C13.027 12.768 12.755 13.8 12.211 14.648C11.683 15.496 10.955 16.144 10.027 16.592C9.115 17.024 8.067 17.24 6.883 17.24Z" fill="#EBEBEB"/>
</svg>
