<svg width="14" height="18" viewBox="0 0 14 18" fill="none" xmlns="http://www.w3.org/2000/svg">
<path d="M7.16153 17.24C5.83353 17.24 4.70553 16.976 3.77753 16.448C2.84953 15.904 2.13753 15.2 1.64153 14.336C1.16153 13.456 0.921531 12.504 0.921531 11.48C0.921531 11 0.977531 10.544 1.08953 10.112C1.21753 9.664 1.36953 9.248 1.54553 8.864C1.73753 8.464 1.92153 8.112 2.09753 7.808C2.28953 7.488 2.45753 7.232 2.60153 7.04L7.16153 0.68C7.24153 0.599999 7.33753 0.503999 7.44953 0.391999C7.56153 0.263999 7.72953 0.199999 7.95353 0.199999H9.22553C9.36953 0.199999 9.48153 0.255999 9.56153 0.368C9.65753 0.463999 9.70553 0.583999 9.70553 0.727999C9.70553 0.791999 9.69753 0.855999 9.68153 0.92C9.66553 0.967999 9.64153 1.008 9.60953 1.04L6.10553 5.936C6.29753 5.872 6.51353 5.832 6.75353 5.816C7.00953 5.784 7.24953 5.768 7.47353 5.768C8.35353 5.784 9.15353 5.944 9.87353 6.248C10.5935 6.552 11.2095 6.968 11.7215 7.496C12.2495 8.008 12.6495 8.608 12.9215 9.296C13.1935 9.968 13.3295 10.688 13.3295 11.456C13.3295 12.464 13.0895 13.408 12.6095 14.288C12.1295 15.168 11.4255 15.88 10.4975 16.424C9.58553 16.968 8.47353 17.24 7.16153 17.24ZM7.13753 15.2C7.80953 15.2 8.43353 15.056 9.00953 14.768C9.58553 14.48 10.0495 14.064 10.4015 13.52C10.7695 12.96 10.9535 12.28 10.9535 11.48C10.9535 10.664 10.7775 9.984 10.4255 9.44C10.0735 8.88 9.60153 8.464 9.00953 8.192C8.43353 7.904 7.80953 7.76 7.13753 7.76C6.46553 7.76 5.84153 7.904 5.26553 8.192C4.68953 8.464 4.21753 8.88 3.84953 9.44C3.49753 9.984 3.32153 10.664 3.32153 11.48C3.32153 12.28 3.49753 12.96 3.84953 13.52C4.21753 14.064 4.68953 14.48 5.26553 14.768C5.84153 15.056 6.46553 15.2 7.13753 15.2Z" fill="#EBEBEB"/>
</svg>
