<svg width="12" height="17" viewBox="0 0 12 17" fill="none" xmlns="http://www.w3.org/2000/svg">
<path d="M3.42366 17C3.27966 17 3.15966 16.952 3.06366 16.856C2.98366 16.744 2.94366 16.616 2.94366 16.472C2.94366 16.424 2.95966 16.352 2.99166 16.256L8.96766 2.288H1.09566C0.935656 2.288 0.799656 2.24 0.687656 2.144C0.591656 2.032 0.543656 1.896 0.543656 1.736V0.775999C0.543656 0.599999 0.591656 0.463999 0.687656 0.368C0.799656 0.255999 0.935656 0.199999 1.09566 0.199999H10.9357C11.1117 0.199999 11.2477 0.255999 11.3437 0.368C11.4557 0.463999 11.5117 0.599999 11.5117 0.775999V1.664C11.5117 1.872 11.4957 2.04 11.4637 2.168C11.4317 2.296 11.3837 2.44 11.3197 2.6L5.39166 16.4C5.34366 16.528 5.26366 16.664 5.15166 16.808C5.05566 16.936 4.91166 17 4.71966 17H3.42366Z" fill="#EBEBEB"/>
</svg>
