<svg width="14" height="19" viewBox="0 0 14 19" fill="none" xmlns="http://www.w3.org/2000/svg">
<path d="M7.00309 18.24C6.07509 18.24 5.21909 18.128 4.43509 17.904C3.66709 17.664 3.00309 17.328 2.44309 16.896C1.89909 16.448 1.47509 15.912 1.17109 15.288C0.867094 14.664 0.715094 13.96 0.715094 13.176C0.715094 12.2 0.947094 11.36 1.41109 10.656C1.89109 9.952 2.52309 9.416 3.30709 9.048C2.68309 8.68 2.19509 8.2 1.84309 7.608C1.49109 7.016 1.31509 6.312 1.31509 5.496C1.31509 4.536 1.54709 3.728 2.01109 3.072C2.49109 2.4 3.15509 1.88 4.00309 1.512C4.86709 1.144 5.86709 0.959999 7.00309 0.959999C8.12309 0.959999 9.10709 1.144 9.95509 1.512C10.8191 1.864 11.4831 2.376 11.9471 3.048C12.4271 3.72 12.6671 4.528 12.6671 5.472C12.6671 6.288 12.4911 7 12.1391 7.608C11.7871 8.2 11.3071 8.68 10.6991 9.048C11.4831 9.416 12.1071 9.952 12.5711 10.656C13.0511 11.36 13.2911 12.2 13.2911 13.176C13.2911 14.216 13.0271 15.12 12.4991 15.888C11.9711 16.64 11.2351 17.224 10.2911 17.64C9.34709 18.04 8.25109 18.24 7.00309 18.24ZM7.00309 16.32C7.73909 16.32 8.40309 16.192 8.99509 15.936C9.58709 15.68 10.0591 15.32 10.4111 14.856C10.7631 14.376 10.9391 13.816 10.9391 13.176C10.9391 12.52 10.7631 11.968 10.4111 11.52C10.0591 11.056 9.58709 10.704 8.99509 10.464C8.40309 10.208 7.73909 10.08 7.00309 10.08C6.26709 10.08 5.59509 10.208 4.98709 10.464C4.39509 10.704 3.92309 11.056 3.57109 11.52C3.21909 11.968 3.04309 12.52 3.04309 13.176C3.04309 13.816 3.21909 14.376 3.57109 14.856C3.92309 15.32 4.39509 15.68 4.98709 15.936C5.59509 16.192 6.26709 16.32 7.00309 16.32ZM7.00309 8.184C7.61109 8.184 8.17109 8.072 8.68309 7.848C9.21109 7.624 9.62709 7.32 9.93109 6.936C10.2511 6.552 10.4111 6.088 10.4111 5.544C10.4111 5 10.2591 4.528 9.95509 4.128C9.66709 3.728 9.25909 3.424 8.73109 3.216C8.21909 2.992 7.64309 2.88 7.00309 2.88C6.36309 2.88 5.77909 2.992 5.25109 3.216C4.73909 3.424 4.33109 3.728 4.02709 4.128C3.72309 4.528 3.57109 5 3.57109 5.544C3.57109 6.104 3.72309 6.584 4.02709 6.984C4.33109 7.368 4.73909 7.664 5.25109 7.872C5.77909 8.08 6.36309 8.184 7.00309 8.184Z" fill="#EBEBEB"/>
</svg>
