<svg width="13" height="18" viewBox="0 0 13 18" fill="none" xmlns="http://www.w3.org/2000/svg">
<path d="M4.51872 18C4.37472 18 4.25472 17.952 4.15872 17.856C4.07872 17.744 4.03872 17.616 4.03872 17.472C4.03872 17.392 4.04672 17.328 4.06272 17.28C4.09472 17.232 4.11872 17.192 4.13472 17.16L7.80672 12.048C7.40672 12.144 6.97472 12.192 6.51072 12.192C5.61472 12.176 4.81472 12.016 4.11072 11.712C3.40672 11.408 2.80672 11 2.31072 10.488C1.81472 9.96 1.43872 9.368 1.18272 8.712C0.926719 8.056 0.798719 7.368 0.798719 6.648C0.798719 5.944 0.918719 5.256 1.15872 4.584C1.41472 3.912 1.79072 3.304 2.28672 2.76C2.79872 2.216 3.43072 1.784 4.18272 1.464C4.93472 1.128 5.82272 0.959999 6.84672 0.959999C7.85472 0.959999 8.73472 1.12 9.48672 1.44C10.2547 1.744 10.8947 2.168 11.4067 2.712C11.9347 3.24 12.3187 3.84 12.5587 4.512C12.8147 5.184 12.9427 5.88 12.9427 6.6C12.9427 7.256 12.8467 7.856 12.6547 8.4C12.4627 8.944 12.2307 9.432 11.9587 9.864C11.7027 10.296 11.4467 10.696 11.1907 11.064L6.58272 17.52C6.51872 17.6 6.43072 17.704 6.31872 17.832C6.20672 17.944 6.03872 18 5.81472 18H4.51872ZM6.84672 10.248C7.51872 10.248 8.13472 10.104 8.69472 9.816C9.27072 9.512 9.72672 9.096 10.0627 8.568C10.3987 8.024 10.5667 7.376 10.5667 6.624C10.5667 5.872 10.3987 5.232 10.0627 4.704C9.72672 4.16 9.27072 3.744 8.69472 3.456C8.13472 3.152 7.51872 3 6.84672 3C6.19072 3 5.58272 3.152 5.02272 3.456C4.46272 3.744 4.01472 4.16 3.67872 4.704C3.34272 5.232 3.17472 5.872 3.17472 6.624C3.17472 7.376 3.34272 8.024 3.67872 8.568C4.01472 9.096 4.46272 9.512 5.02272 9.816C5.58272 10.104 6.19072 10.248 6.84672 10.248Z" fill="#EBEBEB"/>
</svg>
